<?xml version="1.0" encoding="UTF-8" standalone="no"?>
<svg
   xmlns:dc="http://purl.org/dc/elements/1.1/"
   xmlns:cc="http://creativecommons.org/ns#"
   xmlns:rdf="http://www.w3.org/1999/02/22-rdf-syntax-ns#"
   xmlns:svg="http://www.w3.org/2000/svg"
   xmlns="http://www.w3.org/2000/svg"
   xmlns:xlink="http://www.w3.org/1999/xlink"
   xmlns:sodipodi="http://sodipodi.sourceforge.net/DTD/sodipodi-0.dtd"
   xmlns:inkscape="http://www.inkscape.org/namespaces/inkscape"
   version="1.0"
   width="1340.000000pt"
   height="1626.000000pt"
   viewBox="0 0 1340.000000 1626.000000"
   preserveAspectRatio="xMidYMid meet"
   id="svg8"
   sodipodi:docname="login-bg-1.svg"
   inkscape:version="0.92.5 (2060ec1f9f, 2020-04-08)">
  <defs
     id="defs12">
    <linearGradient
       inkscape:collect="always"
       id="linearGradient839">
      <stop
         style="stop-color:#4e73df;stop-opacity:1;"
         offset="0"
         id="stop835" />
      <stop
         style="stop-color:#224abe;stop-opacity:1"
         offset="1"
         id="stop837" />
    </linearGradient>
    <linearGradient
       inkscape:collect="always"
       xlink:href="#linearGradient839"
       id="linearGradient841"
       x1="5675.7007"
       y1="5568.9985"
       x2="13400"
       y2="0"
       gradientUnits="userSpaceOnUse" />
  </defs>
  <sodipodi:namedview
     pagecolor="#ffffff"
     bordercolor="#666666"
     borderopacity="1"
     objecttolerance="10"
     gridtolerance="10"
     guidetolerance="10"
     inkscape:pageopacity="0"
     inkscape:pageshadow="2"
     inkscape:window-width="1366"
     inkscape:window-height="703"
     id="namedview10"
     showgrid="false"
     inkscape:zoom="0.15394576"
     inkscape:cx="884.10952"
     inkscape:cy="281.17699"
     inkscape:window-x="0"
     inkscape:window-y="0"
     inkscape:window-maximized="1"
     inkscape:current-layer="g6" />
  <metadata
     id="metadata2">
Created by potrace 1.16, written by Peter Selinger 2001-2019
<rdf:RDF>
  <cc:Work
     rdf:about="">
    <dc:format>image/svg+xml</dc:format>
    <dc:type
       rdf:resource="http://purl.org/dc/dcmitype/StillImage" />
  </cc:Work>
</rdf:RDF>
</metadata>
  <g
     transform="translate(0.000000,1626.000000) scale(0.100000,-0.100000)"
     fill="#000000"
     stroke="none"
     id="g6">
    <path
       d="M6 16199 c-3 -34 -6 -3693 -6 -8130 l0 -8069 6700 0 6700 0 0 63 c0 197 -65 684 -146 1087 -230 1149 -609 2152 -1172 3095 -770 1290 -1869 2313 -3187 2964 -507 251 -732 339 -1530 596 -541 175 -819 286 -1270 510 -959 475 -1765 1062 -2575 1875 -712 714 -1347 1540 -1925 2505 -344 574 -739 1356 -1010 2000 -190 450 -409 1053 -521 1430 -20 66 -39 124 -43 128 -5 4 -11 -20 -15 -54z"
       id="path4"
       style="fill:url(#linearGradient841);fill-opacity:1" />
  </g>
</svg>
